<svg xmlns="http://www.w3.org/2000/svg" viewBox="0 0 110.64 119.94"><defs><style>.cls-1{fill:#6d6e70;}.cls-2{fill:#7bd0ea;}.cls-3{fill:#67cfe3;}.cls-4{fill:#fff;}</style></defs><title>logo</title><g id="Capa_2" data-name="Capa 2"><g id="Capa_1-2" data-name="Capa 1"><polygon class="cls-1" points="9.53 92.78 10.1 92.31 6.31 87.66 5.74 88.12 7.38 90.14 2.18 94.37 2.69 94.98 7.89 90.76 9.53 92.78"/><polygon class="cls-1" points="14.46 96.66 12.06 99.11 8.95 96.07 11.35 93.62 10.78 93.06 5.57 98.39 6.14 98.94 8.43 96.6 11.54 99.64 9.26 101.99 9.82 102.54 15.03 97.22 14.46 96.66"/><polygon class="cls-1" points="11.63 104.1 15.85 107.37 16.33 106.75 12.73 103.97 14.32 101.91 17.66 104.5 18.11 103.91 14.78 101.32 16.35 99.3 19.84 102.01 20.31 101.41 16.19 98.21 11.63 104.1"/><polygon class="cls-1" points="32.19 108.07 27.43 112.78 28.37 106.16 27.94 105.95 23.21 110.66 24.13 104.04 23.38 103.66 22.37 111.51 23.05 111.85 25.67 109.27 27.48 107.41 27.07 110 26.57 113.61 27.26 113.96 32.95 108.45 32.19 108.07"/><polygon class="cls-1" points="34.26 109.55 38.46 110.95 38.7 110.22 33.75 108.58 31.41 115.65 36.47 117.33 36.72 116.59 32.4 115.16 33.21 112.69 37.22 114.02 37.45 113.31 33.45 111.98 34.26 109.55"/><path class="cls-1" d="M42.39,111.09l-2.51-.52-1.51,7.29,2.51.52a4.61,4.61,0,0,0,.93.1,3.48,3.48,0,0,0,2-.58,3.81,3.81,0,0,0,1.56-2.49h0A3.57,3.57,0,0,0,42.39,111.09Zm2.18,4.17a3.06,3.06,0,0,1-1.25,2,2.93,2.93,0,0,1-2.28.37l-1.73-.36,1.2-5.78,1.73.36A2.81,2.81,0,0,1,44.57,115.26Z"/><path class="cls-1" d="M49.76,112.22,47.21,112l-.6,7.42,2.55.21.4,0a3.62,3.62,0,0,0,2.43-.85,3.81,3.81,0,0,0,1.24-2.66A3.57,3.57,0,0,0,49.76,112.22Zm2.68,3.87a3.06,3.06,0,0,1-1,2.13,2.93,2.93,0,0,1-2.22.65l-1.76-.14.48-5.89,1.76.14A2.81,2.81,0,0,1,52.44,116.09Z"/><rect class="cls-1" x="54.96" y="112.47" width="0.79" height="7.45" transform="translate(-1.87 0.91) rotate(-0.92)"/><polygon class="cls-1" points="62.44 112.09 62.91 117.82 57.78 112.48 57.37 112.52 57.99 119.94 58.78 119.87 58.3 114.15 63.41 119.44 63.45 119.48 63.84 119.45 63.22 112.03 62.44 112.09"/><path class="cls-1" d="M68.41,114.57l.15.71,2.46-.52.38,1.8a3.11,3.11,0,0,1-1.87,1.18,3,3,0,0,1-2.43-.41,3.36,3.36,0,0,1-.82-4.31,3,3,0,0,1,2-1.28,3.24,3.24,0,0,1,2.37.41l.1.07.36-.62-.1-.06a4,4,0,0,0-5.4,1.09,3.8,3.8,0,0,0-.45,2.93,3.88,3.88,0,0,0,1.5,2.4,3.51,3.51,0,0,0,2.06.63,4.73,4.73,0,0,0,1-.11,3.86,3.86,0,0,0,2.49-1.75l0,0-.59-2.8Z"/><path class="cls-1" d="M81,110.79a1.68,1.68,0,0,0,.31-1.78c-.36-.89-1.39-1.69-3.09-1l-2.85,1.15,2.79,6.9L81,114.91a3.82,3.82,0,0,0,1.55-1.06,1.73,1.73,0,0,0,.24-1.82A2,2,0,0,0,81,110.79Zm-.52-.44a2.32,2.32,0,0,1-1,.66l-2.18.88-1-2.36,2.11-.85a1.51,1.51,0,0,1,2.11.63A1,1,0,0,1,80.45,110.35ZM78.57,115l-1-2.45,2.18-.88c1.6-.65,2.14.29,2.27.6.31.76-.14,1.39-1.34,1.88Z"/><path class="cls-1" d="M87.73,104.22a3.68,3.68,0,0,0-2.84.43A3.63,3.63,0,0,0,83,107a4,4,0,0,0,.49,2.77,4,4,0,0,0,2.13,1.85,3.35,3.35,0,0,0,1.12.19,3.89,3.89,0,0,0,1.92-.54,3.65,3.65,0,0,0,1.38-5.19A3.92,3.92,0,0,0,87.73,104.22Zm-3.54,5.23a3.16,3.16,0,0,1-.38-2.4,2.91,2.91,0,0,1,1.45-1.74,2.88,2.88,0,0,1,4.11,1.22,3,3,0,1,1-5.18,2.93Z"/><path class="cls-1" d="M91.25,100.67l1.8,8,.69-.52-.44-1.89,3.32-2.49,1.7.94.69-.52-7.14-3.95Zm.87.54,3.78,2.12-2.8,2.1Z"/><path class="cls-1" d="M101.6,97a2.28,2.28,0,0,0-.68-1.63,2.34,2.34,0,0,0-3.43,0l-2.38,2.27,5.14,5.39.58-.55-1.88-2,1.3-1.24,3.69.25.76-.73-3.76-.24A2.4,2.4,0,0,0,101.6,97Zm-1.43,1.28L98.42,100l-2.21-2.31L98,95.93a1.64,1.64,0,0,1,1.18-.5,1.6,1.6,0,0,1,1.11.52A1.5,1.5,0,0,1,100.18,98.28Z"/><path class="cls-1" d="M106.83,90.36h0a3.57,3.57,0,0,0-5.21.59l-1.63,2,5.74,4.75,1.63-2a3.74,3.74,0,0,0,.94-2.79A3.81,3.81,0,0,0,106.83,90.36Zm-5.74,2.44,1.12-1.36a2.81,2.81,0,0,1,4.12-.46,3.06,3.06,0,0,1,1.17,2,2.93,2.93,0,0,1-.74,2.19l-1.12,1.36Z"/><circle class="cls-1" cx="1.37" cy="86.98" r="1.37"/><circle class="cls-1" cx="109.26" cy="86.98" r="1.37"/><circle class="cls-2" cx="55.32" cy="51.91" r="51.91"/><circle class="cls-3" cx="55.32" cy="51.91" r="51.91"/><path class="cls-4" d="M44,36.22A41.56,41.56,0,0,0,23.21,60.65c-1.26,3.94-3.06,11.8,3.34,12,2.72.1,5.72-1.53,7.94-2.94a22.35,22.35,0,0,0,6.1-5.84L39.14,63c-1.34,2.41-2.47,5.7-1.55,8.45s4.08,2.7,6.3,1.73c5.53-2.44,9.92-7.33,13.37-12.15a94.1,94.1,0,0,0,9.67-17.67,110.65,110.65,0,0,0,6.35-19.7c.49-2.18.89-4.38,1.24-6.58.22-1.38.16-3-1.22-3.73a.87.87,0,0,0-1.16.3c-1.85,2.46-2.77,5.45-3.78,8.31L65,31.55c-2.31,6.51-4.64,13-7.11,19.45s-5.13,13-8,19.31q-2.09,4.61-4.37,9.12c-1.45,2.87-2.86,5.88-5.22,8.13h1.2c-1.12-1.09-.48-2.91-.05-4.18a14.6,14.6,0,0,1,2.34-4.17,27.29,27.29,0,0,1,6.84-6,45.34,45.34,0,0,1,9.22-4.67c3-1.07,6.28-1.88,9.42-1.37,3.3.54,5.35,3,4.67,6.43-.64,3.16-3.54,5.72-6,7.5a34.61,34.61,0,0,1-8.72,4.24,44.15,44.15,0,0,1-10.39,2.45,24.66,24.66,0,0,1-7.66-.48c-1.06-.24-1.51,1.39-.45,1.63,6.92,1.54,13.88-.06,20.4-2.49,5.34-2,11.75-5.41,14-11a7.23,7.23,0,0,0-1.14-7.84c-1.76-1.87-4.63-2.32-7.08-2.27-6.4.13-12.84,3.52-18,7a26.31,26.31,0,0,0-7.43,7.23c-1.53,2.34-3.58,6.77-1.13,9.15a.86.86,0,0,0,1.2,0,26.24,26.24,0,0,0,4.88-7.3c1.61-3.13,3.14-6.3,4.61-9.5,2.85-6.2,5.44-12.51,7.91-18.87S63.69,40.16,66,33.66q1.77-5,3.53-10c1.11-3.13,2-6.46,4.05-9.15l-1.16.3c1.13.6.2,3.35,0,4.3-.29,1.65-.64,3.29-1,4.92-.77,3.4-1.72,6.76-2.82,10.08A108.11,108.11,0,0,1,60.28,53c-3,5.44-6.58,10.68-11.32,14.8-2.06,1.79-5,4.19-7.81,4.34-4.06.22-1.49-6.61-.55-8.29A.85.85,0,0,0,39.14,63a21,21,0,0,1-5.5,5.24c-2.11,1.39-4.86,2.79-7.45,2.7-2.79-.1-2.76-3.57-2.43-5.54a35.16,35.16,0,0,1,2-7,39.65,39.65,0,0,1,19.12-20.8c1-.49.12-1.94-.85-1.46Z"/><path class="cls-4" d="M55.32,100A48.09,48.09,0,0,1,36.6,7.6,48.09,48.09,0,0,1,74,96.21,47.78,47.78,0,0,1,55.32,100Zm0-95.2A47.13,47.13,0,0,0,37,95.33,47.13,47.13,0,0,0,73.66,8.49,46.83,46.83,0,0,0,55.32,4.78Z"/></g></g></svg>